<svg id="visual" viewBox="0 0 900 600" width="900" height="600" xmlns="http://www.w3.org/2000/svg" xmlns:xlink="http://www.w3.org/1999/xlink" version="1.1"><path d="M0 236L150 189L300 263L450 224L600 245L750 236L900 187L900 0L750 0L600 0L450 0L300 0L150 0L0 0Z" fill="#464b61"></path><path d="M0 164L150 171L300 176L450 217L600 193L750 212L900 227L900 0L750 0L600 0L450 0L300 0L150 0L0 0Z" fill="#555b79"></path><path d="M0 158L150 161L300 137L450 134L600 129L750 155L900 186L900 0L750 0L600 0L450 0L300 0L150 0L0 0Z" fill="#646d92"></path><path d="M0 142L150 106L300 162L450 120L600 164L750 120L900 140L900 0L750 0L600 0L450 0L300 0L150 0L0 0Z" fill="#737eab"></path><path d="M0 83L150 106L300 111L450 80L600 112L750 110L900 82L900 0L750 0L600 0L450 0L300 0L150 0L0 0Z" fill="#8390c5"></path><path d="M0 45L150 79L300 78L450 72L600 75L750 89L900 85L900 0L750 0L600 0L450 0L300 0L150 0L0 0Z" fill="#94a2e0"></path><path d="M0 22L150 16L300 26L450 56L600 53L750 24L900 35L900 0L750 0L600 0L450 0L300 0L150 0L0 0Z" fill="#a5b4fc"></path></svg>