<svg id="visual" viewBox="0 0 900 600" width="900" height="600" xmlns="http://www.w3.org/2000/svg" xmlns:xlink="http://www.w3.org/1999/xlink" version="1.1"><g><g transform="translate(53 146)"><path d="M0 -32L25 -19.9L31.2 7.1L13.9 28.8L-13.9 28.8L-31.2 7.1L-25 -19.9Z" fill="#ccfbf1"></path></g><g transform="translate(871 119)"><path d="M0 -12L9.4 -7.5L11.7 2.7L5.2 10.8L-5.2 10.8L-11.7 2.7L-9.4 -7.5Z" fill="#ccfbf1"></path></g><g transform="translate(755 83)"><path d="M0 -21L16.4 -13.1L20.5 4.7L9.1 18.9L-9.1 18.9L-20.5 4.7L-16.4 -13.1Z" fill="#ccfbf1"></path></g><g transform="translate(72 10)"><path d="M0 -11L8.6 -6.9L10.7 2.4L4.8 9.9L-4.8 9.9L-10.7 2.4L-8.6 -6.9Z" fill="#ccfbf1"></path></g><g transform="translate(568 538)"><path d="M0 -11L8.6 -6.9L10.7 2.4L4.8 9.9L-4.8 9.9L-10.7 2.4L-8.6 -6.9Z" fill="#ccfbf1"></path></g><g transform="translate(645 514)"><path d="M0 -20L15.6 -12.5L19.5 4.5L8.7 18L-8.7 18L-19.5 4.5L-15.6 -12.5Z" fill="#ccfbf1"></path></g><g transform="translate(185 591)"><path d="M0 -26L20.3 -16.2L25.3 5.8L11.3 23.4L-11.3 23.4L-25.3 5.8L-20.3 -16.2Z" fill="#ccfbf1"></path></g><g transform="translate(137 314)"><path d="M0 -15L11.7 -9.4L14.6 3.3L6.5 13.5L-6.5 13.5L-14.6 3.3L-11.7 -9.4Z" fill="#ccfbf1"></path></g><g transform="translate(194 82)"><path d="M0 -20L15.6 -12.5L19.5 4.5L8.7 18L-8.7 18L-19.5 4.5L-15.6 -12.5Z" fill="#ccfbf1"></path></g><g transform="translate(826 205)"><path d="M0 -26L20.3 -16.2L25.3 5.8L11.3 23.4L-11.3 23.4L-25.3 5.8L-20.3 -16.2Z" fill="#ccfbf1"></path></g><g transform="translate(400 543)"><path d="M0 -16L12.5 -10L15.6 3.6L6.9 14.4L-6.9 14.4L-15.6 3.6L-12.5 -10Z" fill="#ccfbf1"></path></g><g transform="translate(738 285)"><path d="M0 -21L16.4 -13.1L20.5 4.7L9.1 18.9L-9.1 18.9L-20.5 4.7L-16.4 -13.1Z" fill="#ccfbf1"></path></g><g transform="translate(466 16)"><path d="M0 -13L10.2 -8.1L12.7 2.9L5.6 11.7L-5.6 11.7L-12.7 2.9L-10.2 -8.1Z" fill="#ccfbf1"></path></g></g></svg>