<svg id="visual" viewBox="0 0 900 600" width="900" height="600" xmlns="http://www.w3.org/2000/svg" xmlns:xlink="http://www.w3.org/1999/xlink" version="1.1"><path d="M0 180L18.8 174.5C37.7 169 75.3 158 112.8 168.8C150.3 179.7 187.7 212.3 225.2 227.7C262.7 243 300.3 241 337.8 232.7C375.3 224.3 412.7 209.7 450.2 207.7C487.7 205.7 525.3 216.3 562.8 214.8C600.3 213.3 637.7 199.7 675.2 198.8C712.7 198 750.3 210 787.8 198.5C825.3 187 862.7 152 881.3 134.5L900 117L900 0L881.3 0C862.7 0 825.3 0 787.8 0C750.3 0 712.7 0 675.2 0C637.7 0 600.3 0 562.8 0C525.3 0 487.7 0 450.2 0C412.7 0 375.3 0 337.8 0C300.3 0 262.7 0 225.2 0C187.7 0 150.3 0 112.8 0C75.3 0 37.7 0 18.8 0L0 0Z" fill="#ccfbf1" stroke-linecap="round" stroke-linejoin="miter"></path></svg>